<?xml version="1.0" encoding="utf-8"?>
<!-- Generator: Adobe Illustrator 20.0.0, SVG Export Plug-In . SVG Version: 6.00 Build 0)  -->
<!DOCTYPE svg PUBLIC "-//W3C//DTD SVG 1.1//EN" "http://www.w3.org/Graphics/SVG/1.1/DTD/svg11.dtd">
<svg version="1.1" id="Layer_1" xmlns="http://www.w3.org/2000/svg" xmlns:xlink="http://www.w3.org/1999/xlink" x="0px" y="0px"
	 viewBox="0 0 385.5 106.1" style="enable-background:new 0 0 385.5 106.1;" xml:space="preserve">
<style type="text/css">
	.st0{fill-rule:evenodd;clip-rule:evenodd;fill:none;stroke:#5ABC69;stroke-width:8;stroke-miterlimit:3;}
	.st1{fill:#FFFFFF;}
</style>
<g id="Logo_2">
	<path class="st0" d="M77.6,17.4L63.8,31.2c0.4,0.3,0.6,0.5,0.8,0.8c8,8,12.1,17.6,12.1,28.9c0,11.3-4,20.9-12.1,28.9
		c-8,8-17.6,12-28.8,12c-11.3,0-20.9-4-28.9-12c-0.3-0.3-0.7-0.7-1-1L19.7,75c-0.3-0.3-0.5-0.6-0.8-0.9c-8-8-12-17.6-12-28.9
		s4-20.9,12-28.9c8-8,17.6-11.9,28.9-11.9c11.2,0,20.8,4,28.9,11.9C76.9,16.7,77.2,17.1,77.6,17.4z M19.7,75l44-44l0.1,0.1L19.8,75
		H19.7z"/>
	<g>
		<path class="st1" d="M146,7.8v9.2c-4.4-3.7-9-5.6-13.7-5.6c-5.2,0-9.6,1.9-13.2,5.7c-3.6,3.8-5.4,8.4-5.4,13.8
			c0,5.4,1.8,9.9,5.4,13.6c3.6,3.7,8,5.5,13.2,5.5c2.7,0,5-0.4,6.9-1.3c1.1-0.4,2.1-1,3.3-1.8c1.1-0.8,2.3-1.7,3.6-2.7v9.3
			c-4.4,2.5-9,3.8-13.8,3.8c-7.2,0-13.4-2.6-18.5-7.7c-5.1-5.2-7.6-11.4-7.6-18.7c0-6.5,2.1-12.4,6.4-17.5c5.3-6.3,12-9.4,20.4-9.4
			C137.3,4,141.7,5.3,146,7.8z"/>
		<path class="st1" d="M181.5,34.4l15.7,21.9h-9.4l-14.5-21H172v21h-7.6V5h9c6.7,0,11.5,1.3,14.5,3.8c3.3,2.8,4.9,6.6,4.9,11.2
			c0,3.6-1,6.8-3.1,9.4C187.6,32,184.9,33.7,181.5,34.4z M172,28.5h2.4c7.2,0,10.9-2.8,10.9-8.4c0-5.2-3.5-7.9-10.6-7.9H172V28.5z"
			/>
		<path class="st1" d="M241.5,12.3h-20.3v12.3H241v7.3h-19.7V49h20.3v7.3h-28V5h28V12.3z"/>
		<path class="st1" d="M290.1,43.8h-21.7l-5.6,12.5h-8.2l25.1-54.5l24.2,54.5h-8.4L290.1,43.8z M287,36.5l-7.5-17.4l-7.9,17.4H287z"
			/>
		<path class="st1" d="M330,12.3v44h-7.6v-44h-11.7V5h30.9v7.3H330z"/>
		<path class="st1" d="M385.2,12.3h-20.3v12.3h19.7v7.3h-19.7V49h20.3v7.3h-28V5h28V12.3z"/>
	</g>
	<g>
		<path class="st1" d="M105.7,90.3c0-8.6,6.2-14.4,14-14.4c4.4,0,7.7,2,10,4.9l-2,1.3c-1.7-2.4-4.8-4.1-8.1-4.1
			c-6.5,0-11.5,5-11.5,12.3c0,7.2,5,12.3,11.5,12.3c3.3,0,6.3-1.6,8.1-4.1l2,1.3c-2.5,3.1-5.7,5-10.1,5
			C111.9,104.7,105.7,98.9,105.7,90.3z"/>
		<path class="st1" d="M138.9,90.3c0-8.2,5.3-14.4,13.4-14.4c8.1,0,13.4,6.3,13.4,14.4s-5.3,14.4-13.4,14.4
			C144.2,104.7,138.9,98.4,138.9,90.3z M163.2,90.3c0-7.1-4.3-12.3-10.9-12.3c-6.7,0-10.9,5.2-10.9,12.3c0,7,4.3,12.3,10.9,12.3
			C158.9,102.5,163.2,97.3,163.2,90.3z"/>
		<path class="st1" d="M197.2,104.2l-6.6-24l-6.6,24h-2.6l-7.9-27.9h2.6l6.7,24.6l6.8-24.6h2.2l6.7,24.6l6.7-24.6h2.6l-7.9,27.9
			H197.2z"/>
		<path class="st1" d="M215.4,90.3c0-8.2,5.3-14.4,13.4-14.4c8.1,0,13.4,6.3,13.4,14.4s-5.3,14.4-13.4,14.4
			C220.7,104.7,215.4,98.4,215.4,90.3z M239.7,90.3c0-7.1-4.3-12.3-10.9-12.3c-6.7,0-10.9,5.2-10.9,12.3c0,7,4.3,12.3,10.9,12.3
			C235.4,102.5,239.7,97.3,239.7,90.3z"/>
		<path class="st1" d="M269.6,104.2l-7.7-11.5h-6.1v11.5h-2.4V76.3h10.3c4.8,0,8.4,3.1,8.4,8.2c0,5.1-3.5,7.9-7.7,8l8,11.7H269.6z
			 M269.6,84.5c0-3.5-2.4-6-6.1-6h-7.7v12h7.7C267.2,90.5,269.6,88,269.6,84.5z"/>
		<path class="st1" d="M300.1,104.2l-11.4-13.1l-3.1,3.4v9.7h-2.4V76.3h2.4v15.3L299,76.3h3l-11.7,13.3l12.9,14.6H300.1z"/>
		<path class="st1" d="M312.9,104.2V76.3h2.4v27.9H312.9z"/>
		<path class="st1" d="M347.2,104.2l-17.4-24v24h-2.4V76.3h2.4l17.3,23.6V76.3h2.4v27.9H347.2z"/>
		<path class="st1" d="M360.8,90.3c0-8.6,6.2-14.4,14-14.4c4.5,0,7.9,1.8,10.4,4.8l-1.8,1.3c-1.9-2.3-5.1-3.9-8.6-3.9
			c-6.5,0-11.5,5-11.5,12.3c0,7.2,5,12.3,11.5,12.3c3.7,0,6.6-1.8,8.1-3.4v-6.7h-10.4v-2.1h12.8v9.7c-2.4,2.8-6.1,4.6-10.5,4.6
			C367,104.8,360.8,98.9,360.8,90.3z"/>
	</g>
</g>
</svg>
