<?xml version="1.0" encoding="utf-8"?>
<!-- Generator: Adobe Illustrator 20.0.0, SVG Export Plug-In . SVG Version: 6.00 Build 0)  -->
<!DOCTYPE svg PUBLIC "-//W3C//DTD SVG 1.1//EN" "http://www.w3.org/Graphics/SVG/1.1/DTD/svg11.dtd">
<svg version="1.1" id="Layer_1" xmlns="http://www.w3.org/2000/svg" xmlns:xlink="http://www.w3.org/1999/xlink" x="0px" y="0px"
	 viewBox="0 0 100 100" style="enable-background:new 0 0 100 100;" xml:space="preserve">
<style type="text/css">
	.st0{fill:#5ABC69;}
</style>
<circle class="st0" cx="63.9" cy="49.5" r="11.4"/>
<path class="st0" d="M55.9,37.5l-7.3-3.5l0.4,0.9l3,6.5C53.1,39.8,54.4,38.5,55.9,37.5z"/>
<path class="st0" d="M49.8,46.7l-0.2,0.1l-7.4,2.6l7.6,2.7c-0.2-0.9-0.3-1.8-0.3-2.7C49.5,48.5,49.6,47.6,49.8,46.7z"/>
<path class="st0" d="M66.7,35.3l-2.7-7.8l-0.3,0.9l-2.4,6.9c0.9-0.2,1.8-0.3,2.7-0.3C64.9,35,65.8,35.1,66.7,35.3z"/>
<path class="st0" d="M75.8,41.3l3.5-7.4l-0.9,0.4l-6.5,3.1C73.5,38.5,74.8,39.8,75.8,41.3z"/>
<path class="st0" d="M78.1,52.2l7.6-2.7l-7.6-2.7c0.2,0.9,0.3,1.8,0.3,2.7C78.4,50.4,78.3,51.3,78.1,52.2z"/>
<path class="st0" d="M61.2,63.7l0.1,0.3l2.6,7.5l2.7-7.8c-0.9,0.2-1.8,0.3-2.7,0.3C63,63.9,62.1,63.8,61.2,63.7z"/>
<path class="st0" d="M72,61.5l7.3,3.5l-3.5-7.4C74.8,59.1,73.5,60.4,72,61.5z"/>
<path class="st0" d="M52,57.6l-0.1,0.2L48.6,65l7.3-3.5C54.4,60.5,53.1,59.2,52,57.6z"/>
<path class="st0" d="M23.8,49.5c0-8.5,6.6-15.4,15-15.9c-2.3-1-4.8-1.6-7.4-1.6c-9.7,0-17.6,7.9-17.6,17.6c0,9.7,7.9,17.6,17.6,17.6
	c2.6,0,5.1-0.6,7.4-1.6C30.5,64.9,23.8,58,23.8,49.5z"/>
<path class="st0" d="M85.3,14.7C76.3,5.6,63.8,0,50,0C22.4,0,0,22.4,0,50c0,7.2,1.5,14,4.3,20.2l5.2-2.4C7.1,62.4,5.7,56.3,5.7,50
	C5.7,25.6,25.6,5.7,50,5.7c12.2,0,23.3,5,31.3,13l-6.9,6.9H87h3.6v-4.8V9.4L85.3,14.7z"/>
<path class="st0" d="M95.7,29.8l-5.2,2.4c2.4,5.5,3.8,11.5,3.8,17.9c0,24.4-19.9,44.3-44.3,44.3c-12.2,0-23.3-5-31.3-13l7-7H13H9.5
	v5v11.2l5.1-5.1C23.7,94.4,36.2,100,50,100c27.6,0,50-22.4,50-50C100,42.8,98.5,36,95.7,29.8z"/>
</svg>
