<?xml version="1.0" encoding="utf-8"?>
<!-- Generator: Adobe Illustrator 20.0.0, SVG Export Plug-In . SVG Version: 6.00 Build 0)  -->
<!DOCTYPE svg PUBLIC "-//W3C//DTD SVG 1.1//EN" "http://www.w3.org/Graphics/SVG/1.1/DTD/svg11.dtd">
<svg version="1.1" id="Layer_1" xmlns="http://www.w3.org/2000/svg" xmlns:xlink="http://www.w3.org/1999/xlink" x="0px" y="0px"
	 viewBox="0 0 90.4 87.1" style="enable-background:new 0 0 90.4 87.1;" xml:space="preserve">
<style type="text/css">
	.st0{fill:#5ABC69;}
	.st1{enable-background:new    ;}
</style>
<g>
	<path class="st0" d="M73.9,44.3c-0.4-1.5-0.8-2.8-1.3-3.9l-0.7-1.6H3.3l-0.7,1.6C0.9,44.1,0,50.6,0,54.8
		c0,17.8,16.9,32.3,37.6,32.3c10.4,0,19.9-3.7,26.7-9.6c1.8,0.4,3.7,0.6,5.6,0.6c11.3,0,20.5-7.7,20.5-17.1
		C90.4,52.9,83.4,45.9,73.9,44.3z M5.3,54.8c0-3,0.6-7.6,1.5-10.6h61.5c0.9,3,1.5,7.5,1.5,10.6c0,6.6-2.9,12.7-7.6,17.4
		c-0.4,0.2-0.8,0.6-1,1c-5.9,5.3-14.3,8.6-23.6,8.6C19.8,81.8,5.3,69.7,5.3,54.8z M69.9,72.9c-0.4,0-0.7,0-1.1,0
		c4-5.2,6.4-11.3,6.4-18c0-1.4-0.1-3.1-0.3-4.8c6,1.6,10.2,6.1,10.2,11.1C85.1,67.6,78.3,72.9,69.9,72.9z"/>
	<path class="st0" d="M37.6,30.6c1.5,0,2.7-1.2,2.7-2.7V2.7c0-1.5-1.2-2.7-2.7-2.7s-2.7,1.2-2.7,2.7v25.2
		C34.9,29.4,36.1,30.6,37.6,30.6z"/>
	<path class="st0" d="M22.9,30.6c1.5,0,2.7-1.2,2.7-2.7V9c0-1.5-1.2-2.7-2.7-2.7S20.2,7.6,20.2,9v18.9
		C20.2,29.4,21.4,30.6,22.9,30.6z"/>
	<path class="st0" d="M52.3,30.6c1.5,0,2.7-1.2,2.7-2.7V9c0-1.5-1.2-2.7-2.7-2.7S49.6,7.5,49.6,9v18.9
		C49.6,29.4,50.8,30.6,52.3,30.6z"/>
</g>
<text transform="matrix(1 0 0 1 -4.8 108.6)" style="font-family:'HelveticaNeue-Bold'; font-size:5px;">Created by Anton Gajdosik</text>
<text transform="matrix(1 0 0 1 -4.8 113.6)" style="font-family:'HelveticaNeue-Bold'; font-size:5px;">from the Noun Project</text>
</svg>
