<?xml version="1.0" encoding="utf-8"?>
<!-- Generator: Adobe Illustrator 20.0.0, SVG Export Plug-In . SVG Version: 6.00 Build 0)  -->
<!DOCTYPE svg PUBLIC "-//W3C//DTD SVG 1.1//EN" "http://www.w3.org/Graphics/SVG/1.1/DTD/svg11.dtd">
<svg version="1.1" id="Layer_1" xmlns="http://www.w3.org/2000/svg" xmlns:xlink="http://www.w3.org/1999/xlink" x="0px" y="0px"
	 viewBox="0 0 81 47" style="enable-background:new 0 0 81 47;" xml:space="preserve">
<style type="text/css">
	.st0{fill:#5ABC69;}
	.st1{enable-background:new    ;}
</style>
<g>
	<path class="st0" d="M49.8,22.1l-4.5,3.6c-0.2,0.2-0.2,0.4-0.2,0.6l1.6,5.4c0.1,0.5-0.3,0.9-0.8,0.9c-0.1,0-0.2,0-0.4-0.1l-4.7-3.1
		c-0.1-0.1-0.2-0.1-0.3-0.1c-0.1,0-0.2,0-0.3,0.1l-4.7,3.1c-0.1,0.1-0.2,0.1-0.4,0.1c-0.5,0-0.8-0.4-0.8-0.9l1.6-5.4
		c0-0.2,0-0.4-0.2-0.6l-4.5-3.6c-0.5-0.4-0.2-1.2,0.4-1.3l5.7-0.2c0.2,0,0.4-0.2,0.5-0.4l2-5.4c0.1-0.3,0.4-0.4,0.7-0.4
		s0.6,0.1,0.7,0.4l2,5.4c0.1,0.2,0.3,0.3,0.5,0.4l5.7,0.2C50,20.9,50.2,21.6,49.8,22.1z"/>
	<path class="st0" d="M18.5,38.5L18.5,38.5l44,0c2.2,0,4-1.8,4-4l0-22c0-2.2-1.8-4-4-4h0l-44,0c-2.2,0-4,1.8-4,4l0,22
		C14.5,36.7,16.3,38.5,18.5,38.5 M18.5,38.5v-3c-0.5,0-1-0.4-1-1l0-22c0-0.5,0.4-1,1-1l44,0c0.5,0,1,0.4,1,1l0,22
		c0,0.3-0.2,0.6-0.3,0.7s-0.3,0.3-0.7,0.3l-44,0L18.5,38.5L18.5,38.5z"/>
	<path class="st0" d="M4.5,47L4.5,47C2,47,0,45,0,42.5L0,29h1.5c3,0,5.5-2.5,5.5-5.5c0-3-2.5-5.5-5.5-5.5H0L0,4.5
		c0-1.2,0.5-2.3,1.3-3.2C2.2,0.5,3.3,0,4.5,0l72,0C79,0,81,2,81,4.5L81,18h-1.5c-3,0-5.5,2.5-5.5,5.5c0,3,2.5,5.5,5.5,5.5H81l0,13.5
		c0,1.2-0.5,2.3-1.3,3.2c-0.8,0.8-2,1.3-3.2,1.3L4.5,47z M3,31.9l0,10.6C3,43.3,3.7,44,4.5,44l72,0c0.4,0,0.8-0.2,1.1-0.4
		c0.3-0.3,0.4-0.7,0.4-1.1l0-10.6c-4-0.7-7-4.2-7-8.4c0-4.2,3-7.7,7-8.4l0-10.6C78,3.7,77.3,3,76.5,3l-72,0C4.1,3,3.7,3.2,3.4,3.5
		C3.2,3.7,3,4.1,3,4.5l0,10.6c4,0.7,7,4.2,7,8.4C10,27.7,7,31.2,3,31.9z"/>
</g>
<text transform="matrix(1 0 0 1 -10 89)" style="font-family:'HelveticaNeue-Bold'; font-size:5px;">Created by Daouna Jeong</text>
<text transform="matrix(1 0 0 1 -10 94)" style="font-family:'HelveticaNeue-Bold'; font-size:5px;">from the Noun Project</text>
</svg>
