<?xml version="1.0" encoding="utf-8"?>
<!-- Generator: Adobe Illustrator 20.0.0, SVG Export Plug-In . SVG Version: 6.00 Build 0)  -->
<!DOCTYPE svg PUBLIC "-//W3C//DTD SVG 1.1//EN" "http://www.w3.org/Graphics/SVG/1.1/DTD/svg11.dtd">
<svg version="1.1" id="Layer_1" xmlns="http://www.w3.org/2000/svg" xmlns:xlink="http://www.w3.org/1999/xlink" x="0px" y="0px"
	 viewBox="0 0 54.9 39.1" style="enable-background:new 0 0 54.9 39.1;" xml:space="preserve">
<style type="text/css">
	.st0{fill:#5ABC69;}
	.st1{enable-background:new    ;}
</style>
<g>
	<path class="st0" d="M54.6,11.2C47.4,4,37.7,0,27.5,0S7.5,4,0.3,11.2c-0.4,0.4-0.4,1,0,1.4s1,0.4,1.4,0C8.6,5.8,17.7,2,27.5,2
		s18.9,3.8,25.7,10.6c0.2,0.2,0.5,0.3,0.7,0.3s0.5-0.1,0.7-0.3C55,12.3,55,11.6,54.6,11.2z"/>
	<path class="st0" d="M6.2,17.1c-0.4,0.4-0.4,1,0,1.4c0.2,0.2,0.5,0.3,0.7,0.3s0.5-0.1,0.7-0.3c11-11,28.8-11,39.7,0
		c0.4,0.4,1,0.4,1.4,0s0.4-1,0-1.4C37,5.4,17.9,5.4,6.2,17.1z"/>
	<path class="st0" d="M27.5,16.6c-5.8,0-11.3,2.3-15.4,6.4c-0.4,0.4-0.4,1,0,1.4s1,0.4,1.4,0c3.7-3.7,8.7-5.8,14-5.8
		s10.3,2.1,14,5.8c0.2,0.2,0.5,0.3,0.7,0.3s0.5-0.1,0.7-0.3c0.4-0.4,0.4-1,0-1.4C38.8,18.9,33.3,16.6,27.5,16.6z"/>
	<path class="st0" d="M27.5,26c-3.6,0-6.6,2.9-6.6,6.6s2.9,6.6,6.6,6.6c3.6,0,6.6-2.9,6.6-6.6S31.1,26,27.5,26z M27.5,37.1
		c-2.5,0-4.6-2-4.6-4.6s2-4.6,4.6-4.6s4.6,2,4.6,4.6S30,37.1,27.5,37.1z"/>
</g>
<text transform="matrix(1 0 0 1 0 62.018)" style="font-family:'HelveticaNeue-Bold'; font-size:5px;">Created by abhishek rana </text>
<text transform="matrix(1 0 0 1 0 67.018)" style="font-family:'HelveticaNeue-Bold'; font-size:5px;">from the Noun Project</text>
</svg>
